<svg width="571" height="51" viewBox="0 0 571 51" fill="none" xmlns="http://www.w3.org/2000/svg">
<path d="M50.4535 0H27.0705L0 50.9331H22.1423C24.4341 45.9232 29.9999 43.3836 35.2382 44.9317L55.3645 50.9331H77.5068L50.4535 0ZM46.7488 32.0767C44.6293 34.2163 41.7517 35.4166 38.7706 35.4166C35.7724 35.4166 32.912 34.2163 30.7925 32.0767C28.6731 29.9371 27.4841 27.0321 27.4841 24.0227C27.4841 20.996 28.6731 18.1084 30.7925 15.9688C32.912 13.8292 35.7896 12.6289 38.7706 12.6289C41.7689 12.6289 44.6293 13.8292 46.7488 15.9688C48.8682 18.1084 50.0572 21.0134 50.0572 24.0227C50.0572 27.0495 48.8682 29.9371 46.7488 32.0767Z" fill="#9173FF"/>
<path d="M133.454 0H110.071L83 50.9331H105.142C107.434 45.9232 113 43.3836 118.238 44.9317L138.364 50.9331H160.507L133.454 0ZM129.749 32.0767C127.629 34.2163 124.752 35.4166 121.771 35.4166C118.772 35.4166 115.912 34.2163 113.793 32.0767C111.673 29.9371 110.484 27.0321 110.484 24.0227C110.484 20.996 111.673 18.1084 113.793 15.9688C115.912 13.8292 118.79 12.6289 121.771 12.6289C124.769 12.6289 127.629 13.8292 129.749 15.9688C131.868 18.1084 133.057 21.0134 133.057 24.0227C133.057 27.0495 131.868 29.9371 129.749 32.0767Z" fill="#9173FF" fill-opacity="0.1"/>
<path d="M216.454 0H193.071L166 50.9331H188.142C190.434 45.9232 196 43.3836 201.238 44.9317L221.364 50.9331H243.507L216.454 0ZM212.749 32.0767C210.629 34.2163 207.752 35.4166 204.771 35.4166C201.772 35.4166 198.912 34.2163 196.793 32.0767C194.673 29.9371 193.484 27.0321 193.484 24.0227C193.484 20.996 194.673 18.1084 196.793 15.9688C198.912 13.8292 201.79 12.6289 204.771 12.6289C207.769 12.6289 210.629 13.8292 212.749 15.9688C214.868 18.1084 216.057 21.0134 216.057 24.0227C216.057 27.0495 214.868 29.9371 212.749 32.0767Z" fill="#9173FF" fill-opacity="0.1"/>
<path d="M299.454 0H276.071L249 50.9331H271.142C273.434 45.9232 279 43.3836 284.238 44.9317L304.364 50.9331H326.507L299.454 0ZM295.749 32.0767C293.629 34.2163 290.752 35.4166 287.771 35.4166C284.772 35.4166 281.912 34.2163 279.793 32.0767C277.673 29.9371 276.484 27.0321 276.484 24.0227C276.484 20.996 277.673 18.1084 279.793 15.9688C281.912 13.8292 284.79 12.6289 287.771 12.6289C290.769 12.6289 293.629 13.8292 295.749 15.9688C297.868 18.1084 299.057 21.0134 299.057 24.0227C299.057 27.0495 297.868 29.9371 295.749 32.0767Z" fill="#9173FF" fill-opacity="0.1"/>
<path d="M382.454 0H359.071L332 50.9331H354.142C356.434 45.9232 362 43.3836 367.238 44.9317L387.364 50.9331H409.507L382.454 0ZM378.749 32.0767C376.629 34.2163 373.752 35.4166 370.771 35.4166C367.772 35.4166 364.912 34.2163 362.793 32.0767C360.673 29.9371 359.484 27.0321 359.484 24.0227C359.484 20.996 360.673 18.1084 362.793 15.9688C364.912 13.8292 367.79 12.6289 370.771 12.6289C373.769 12.6289 376.629 13.8292 378.749 15.9688C380.868 18.1084 382.057 21.0134 382.057 24.0227C382.057 27.0495 380.868 29.9371 378.749 32.0767Z" fill="#9173FF" fill-opacity="0.1"/>
<path d="M460.454 0H437.071L410 50.9331H432.142C434.434 45.9232 440 43.3836 445.238 44.9317L465.364 50.9331H487.507L460.454 0ZM456.749 32.0767C454.629 34.2163 451.752 35.4166 448.771 35.4166C445.772 35.4166 442.912 34.2163 440.793 32.0767C438.673 29.9371 437.484 27.0321 437.484 24.0227C437.484 20.996 438.673 18.1084 440.793 15.9688C442.912 13.8292 445.79 12.6289 448.771 12.6289C451.769 12.6289 454.629 13.8292 456.749 15.9688C458.868 18.1084 460.057 21.0134 460.057 24.0227C460.057 27.0495 458.868 29.9371 456.749 32.0767Z" fill="#9173FF" fill-opacity="0.1"/>
<path d="M543.454 0H520.071L493 50.9331H515.142C517.434 45.9232 523 43.3836 528.238 44.9317L548.364 50.9331H570.507L543.454 0ZM539.749 32.0767C537.629 34.2163 534.752 35.4166 531.771 35.4166C528.772 35.4166 525.912 34.2163 523.793 32.0767C521.673 29.9371 520.484 27.0321 520.484 24.0227C520.484 20.996 521.673 18.1084 523.793 15.9688C525.912 13.8292 528.79 12.6289 531.771 12.6289C534.769 12.6289 537.629 13.8292 539.749 15.9688C541.868 18.1084 543.057 21.0134 543.057 24.0227C543.057 27.0495 541.868 29.9371 539.749 32.0767Z" fill="#9173FF" fill-opacity="0.1"/>
</svg>
